<?xml version="1.0" encoding="utf-8"?>
<!-- Generator: Adobe Illustrator 27.5.0, SVG Export Plug-In . SVG Version: 6.00 Build 0)  -->
<svg version="1.1" id="_x31_" xmlns="http://www.w3.org/2000/svg" xmlns:xlink="http://www.w3.org/1999/xlink" x="0px" y="0px"
	 viewBox="0 0 451 451" style="enable-background:new 0 0 451 451;" xml:space="preserve">
<g>
	<polygon style="fill:#8C6F6F;" points="135.232,382.211 141.886,382.21 141.118,329.6 136,329.6 	"/>
	<polygon style="fill:#6D5050;" points="141.419,350.187 141.118,329.6 136,329.6 135.7,350.187 	"/>
	<polygon style="fill:#6D5050;" points="146.669,310.886 130.449,310.886 132.321,335.008 144.797,335.008 	"/>
	<path style="fill:#8C6F6F;" d="M179.538,390.528c-1.104-6.371-19.029-11.437-40.98-11.437c-21.95,0-39.875,5.066-40.98,11.437
		H179.538z"/>
	<path style="fill:#6D5050;" d="M179.593,304.856c0-6.661-18.995-6.862-41.658-6.862c-22.662,0-40.41,0.201-40.41,6.862
		c0,6.661,18.372,12.061,41.034,12.061C161.221,316.917,179.593,311.517,179.593,304.856z"/>
	<path style="fill:#FF974A;" d="M99.861,117.853c-14.993-3.963-39.56-3.985-53.88-0.571c-4.218,1.006-6.95,5.1-6.25,9.379
		l22.63,138.418c0.653,3.992,4.102,6.923,8.146,6.923h49.764c5.091,0,8.968-4.563,8.147-9.586l-22.546-137.906
		C105.348,121.306,102.998,118.682,99.861,117.853z"/>
	<path style="fill:#FF974A;" d="M107.901,117.853c-14.993-3.963-39.56-3.985-53.88-0.571c-4.218,1.006-6.949,5.1-6.25,9.379
		L70.4,265.078c0.653,3.992,4.102,6.923,8.147,6.923h49.764c5.091,0,8.968-4.563,8.147-9.586l-22.546-137.906
		C113.388,121.306,111.038,118.682,107.901,117.853z"/>
	<path style="fill:#FFBA5F;" d="M89.049,115.099c-12.403-0.777-25.827-0.011-35.028,2.183c-4.218,1.006-6.949,5.099-6.25,9.379
		l10.925,66.823C62.185,157.462,73.773,128.094,89.049,115.099z"/>
	<path style="fill:#603C4F;" d="M229.26,254.534c-49.944-4.436-100.228-4.073-140.053-1.386
		c-2.236,19.322,8.22,35.073,16.838,44.361h118.185L229.26,254.534z"/>
	<path style="fill:#4F2E41;" d="M114.23,284.894c19.339-32.647,75.613-32.915,75.613-32.915L178.9,238.315l-76.939,13.516
		l-7.07,12.684L114.23,284.894z"/>
	<path style="fill:#4F2E41;" d="M217.747,253.605c1.505,1.356,2.325,2.782,2.325,4.257c0,8.881-29.171,16.081-65.155,16.081
		c-35.984,0-65.155-7.2-65.155-16.081c0-1.726,1.114-3.388,3.154-4.946c-1.236,0.078-2.492,0.151-3.709,0.233
		c-2.236,19.321,8.22,35.073,16.838,44.361l118.185,0l5.029-42.975C225.422,254.193,221.584,253.89,217.747,253.605z"/>
	<path style="fill:#FF974A;" d="M145.232,295.083H91.545c-2.976,0-5.388,2.412-5.388,5.388v0.245c0,2.976,2.412,5.388,5.388,5.388
		h53.687c2.976,0,5.388-2.412,5.388-5.388v-0.245C150.62,297.495,148.207,295.083,145.232,295.083z"/>
	<path style="fill:#FFBA5F;" d="M122.104,295.083h-29.75c-2.695,0-4.879,2.185-4.879,4.88v0.222c0,2.695,2.185,4.88,4.879,4.88
		h29.75c2.695,0,4.88-2.185,4.88-4.88v-0.222C126.983,297.267,124.799,295.083,122.104,295.083z"/>
	<path style="fill:#8C6F6F;" d="M186.705,397.181c-1.215-3.468-4.484-5.48-7.303-4.492c-2.818,0.988-4.117,4.6-2.902,8.068
		c1.215,3.468,4.485,5.48,7.302,4.492C186.621,404.262,187.921,400.65,186.705,397.181z"/>
	<path style="fill:#8C6F6F;" d="M141.79,397.181c-1.215-3.468-4.485-5.48-7.303-4.492c-2.818,0.988-4.117,4.6-2.902,8.068
		c1.215,3.468,4.484,5.48,7.303,4.492C141.706,404.262,143.005,400.65,141.79,397.181z"/>
	<path style="fill:#8C6F6F;" d="M100.825,397.181c-1.215-3.468-4.485-5.48-7.303-4.492c-2.818,0.988-4.117,4.6-2.902,8.068
		c1.215,3.468,4.485,5.48,7.302,4.492C100.741,404.262,102.04,400.65,100.825,397.181z"/>
	<path style="fill:#D64795;" d="M216.533,200.319c-18.568-15.066-34.722-62.44-46.575-72.421c0,0-11.578,37.939-2.703,78.837
		c3.964,18.268,31.434,33.236,37.539,32.387C210.898,238.274,224.57,206.84,216.533,200.319z"/>
	<path style="fill:#C6388D;" d="M207.983,217.086c-18.233,3.073-37.562-21.426-43.174-54.721c-0.126-0.746-0.234-1.488-0.344-2.231
		c-1.048,13.401-0.867,29.745,2.79,46.6c3.964,18.268,31.434,33.235,37.539,32.387c4.253-0.591,12.648-16.513,14.633-28.325
		C216.123,214.157,212.279,216.362,207.983,217.086z"/>
	<path style="fill:#E2DABA;" d="M231.519,220.994c2.621-13.234-5.498-23.397-18.001-22.369
		c-12.285,1.01-23.697,12.443-25.633,25.229c-1.884,12.441,5.907,21.822,17.528,21.246
		C217.231,244.514,228.971,233.86,231.519,220.994z"/>
	<g>
		<path style="fill:#EDB984;" d="M287.616,219.811c-2.617-1.647-16.102-2.846-24.295-2.876l-0.383,19.194
			c12.417,5.598,27.188,1.971,27.674-0.795C291.098,232.564,290.195,221.434,287.616,219.811z"/>
		<path style="fill:#EDB984;" d="M283.407,205.882c-1.173,0.169-6.312,7.394-17.984,11.295l10.278,5.936
			c3.093-1.104,11.677-10.992,11.885-13.242C287.818,207.359,285.112,205.635,283.407,205.882z"/>
		<path style="fill:#EDB984;" d="M299.284,215.413c-1.003-0.025-9.342,1.564-18.075,4.366l5.346,5.639
			c0,0,13.504-4.171,14.519-5.836C302.087,217.921,300.743,215.449,299.284,215.413z"/>
		<path style="fill:#EDB984;" d="M303.604,224.836c-0.879-0.685-10.274,0.52-19.376,1.865l4.685,6.119c0,0,14.04-1.949,15.249-3.368
			C305.367,228.038,304.48,225.517,303.604,224.836z"/>
		<path style="fill:#EDB984;" d="M273.972,238.921c12.059,3.801,27.708-0.674,28.397-1.804c0.688-1.128,1.561-4.489-0.229-4.473
			c-1.806,0.016-10.746,2.058-12.836,1.295c-2.114-0.772-14.937-7.184-15.185-6.916
			C273.871,227.291,273.972,238.921,273.972,238.921z"/>
	</g>
	<path style="fill:#EDB984;" d="M270.533,238.315c0,0-62.474,4.657-70.746-0.098c-8.272-4.755-0.175-38.39,15.71-37.956
		c15.885,0.434,58.917,21.28,58.917,21.28L270.533,238.315z"/>
	<path style="fill:#E79B69;" d="M201.11,211.308c-6.611,10.012-5.549,24.48-1.323,26.909c8.272,4.755,70.746,0.098,70.746,0.098
		S210.719,208.106,201.11,211.308z"/>
	<path style="fill:#603C4F;" d="M192.011,282.491c-2.778-15.083-13.112-21.995-34.322-23.659
		c-21.21-1.664-25.768,23.747-22.458,37.291c2.698,11.04,42.004,71.948,61.135,98.149
		C196.367,394.271,197.834,314.098,192.011,282.491z"/>
	<path style="fill:#4F2E41;" d="M192.011,282.491c-1.208-6.558-4.085-12.46-8.689-17.176c-4.486,5.369-16.894,9.235-31.536,9.235
		c-5.859,0-11.359-0.623-16.144-1.708c-2.04,8.231-2.901,17.555-1.451,23.489c2.698,11.04,43.044,71.74,62.175,97.941
		C196.367,394.271,197.834,314.098,192.011,282.491z"/>
	<path style="fill:#603C4F;" d="M261.048,282.491c-2.778-15.083-14.359-26.709-35.569-28.372
		c-21.21-1.664-22.025,27.628-18.715,41.173c2.698,11.04,39.509,72.78,58.64,98.98C265.403,394.271,266.871,314.098,261.048,282.491
		z"/>
	<path style="fill:#4F2E41;" d="M261.048,282.491c-2.406-13.064-11.43-23.522-27.58-27.171
		c-5.499,4.411-26.519,12.476-27.328,12.731c-2.647,8.92-1.798,20.726-0.104,27.656c2.698,11.04,40.237,72.364,59.367,98.565
		C265.403,394.271,266.871,314.098,261.048,282.491z"/>
	<path style="fill:#D64795;" d="M89.484,272.556c37.707-24.953,100.358-20.577,100.358-20.577s-19.676-53.451-13.854-74.799
		c5.823-21.349,0.849-41.96-6.03-49.282c-8.595-9.149-32.513-20.576-44.708-18.923c-16.358,2.218-38.718,18.598-47.146,37.561
		C64.796,176.479,89.484,272.556,89.484,272.556z"/>
	<path style="fill:#C6388D;" d="M120.052,169.07c-5.873-23.459-20.309-39.024-30.521-37.603
		c-5.944,6.307-10.944,13.257-13.909,19.928c-13.308,29.944,13.863,121.161,13.863,121.161c10.598-7.013,37.526-14.653,50.12-17.781
		C134.192,226.462,126.711,195.67,120.052,169.07z"/>
	<path style="fill:#635356;" d="M356.672,69.604H241.799c-5.334,0-9.793,5.75-10.299,13.28l-7.638,113.723
		c-0.578,8.613,4.198,16.062,10.299,16.062h114.873c5.334,0,9.793-5.75,10.299-13.28l7.638-113.723
		C367.549,77.053,362.774,69.604,356.672,69.604z"/>
	<g>
		<path style="fill:#6D5D60;" d="M366.884,86.962l0.087-1.297c0.578-8.613-4.198-16.062-10.299-16.062H241.799
			c-5.334,0-9.793,5.75-10.299,13.28l-2.327,34.645L366.884,86.962z"/>
		<path style="fill:#6D5D60;" d="M325.606,212.668h23.429c3.755,0,7.07-2.857,8.884-7.172L325.606,212.668z"/>
	</g>
	<path style="fill:#564649;" d="M367.302,69.604H252.428c-5.334,0-9.793,5.75-10.299,13.28l-7.638,113.723
		c-0.578,8.613,4.198,16.062,10.299,16.062h114.873c5.334,0,9.793-5.75,10.299-13.28L377.6,85.666
		C378.178,77.053,373.402,69.604,367.302,69.604z"/>
	<path style="fill:#514144;" d="M282.103,94.26c32.609-15.865,67.708-17.296,95.361-6.574l0.136-2.021
		c0.578-8.613-4.198-16.062-10.298-16.062H252.428c-5.334,0-9.793,5.75-10.299,13.28l-2.985,44.438
		C250.27,114.161,264.8,102.679,282.103,94.26z"/>
	<polygon style="fill:#4C3B3F;" points="328.618,168.03 294.516,168.03 290.98,212.668 325.083,212.668 	"/>
	<rect x="275.523" y="232.076" style="fill:#564649;" width="42.351" height="8.318"/>
	<polygon style="fill:#564649;" points="327.072,164.842 294.099,164.842 303.176,241.226 343.127,241.226 	"/>
	<polygon style="fill:#635356;" points="331.439,164.842 298.466,164.842 307.543,241.226 347.494,241.226 	"/>
	<rect x="104.872" y="243.305" style="fill:#F2ECD1;" width="4.991" height="162.195"/>
	<rect x="161.848" y="243.305" style="fill:#F2ECD1;" width="4.991" height="162.195"/>
	<rect x="339.847" y="243.305" style="fill:#E2D9B5;" width="4.991" height="162.195"/>
	<rect x="400.15" y="243.305" style="fill:#E2D9B5;" width="4.99" height="162.195"/>
	<path style="fill:#D64795;" d="M113.329,152.227c0.277-13.031-3.882-29.389-16.081-26.339c-12.2,3.05-31.371,29.947-24.716,62.386
		c6.654,32.439,28.598,48.24,40.242,50.735l23.766-38.647C111.416,190.892,113.051,165.257,113.329,152.227z"/>
	<path style="fill:#C6388D;" d="M79.436,172.499c-1.938-8.611-2.683-17.019-2.39-24.789c-4.995,10.954-7.681,25.127-4.514,40.563
		c6.654,32.439,28.598,48.239,40.242,50.735l9.882-16.07C105.174,224.471,86.24,202.723,79.436,172.499z"/>
	<path style="fill:#E2DABA;" d="M142.312,219.33c2.621-13.234-5.498-23.397-18-22.369c-12.285,1.01-23.697,12.443-25.633,25.229
		c-1.883,12.441,5.907,21.823,17.528,21.246C128.023,242.85,139.764,232.197,142.312,219.33z"/>
	<g>
		<path style="fill:#EDB984;" d="M199.445,219.811c-2.617-1.647-16.103-2.846-24.295-2.876l-0.383,19.194
			c12.417,5.598,27.188,1.971,27.674-0.795C202.927,232.564,202.024,221.434,199.445,219.811z"/>
		<path style="fill:#EDB984;" d="M195.236,205.882c-1.173,0.169-6.312,7.394-17.984,11.295l10.278,5.936
			c3.093-1.104,11.677-10.992,11.885-13.242C199.648,207.359,196.941,205.635,195.236,205.882z"/>
		<path style="fill:#EDB984;" d="M211.114,215.413c-1.003-0.025-9.342,1.564-18.075,4.366l5.346,5.639
			c0,0,13.504-4.171,14.519-5.836C213.917,217.921,212.573,215.449,211.114,215.413z"/>
		<path style="fill:#EDB984;" d="M215.434,224.836c-0.88-0.685-10.274,0.52-19.376,1.865l4.685,6.119c0,0,14.04-1.949,15.249-3.368
			C217.196,228.038,216.309,225.517,215.434,224.836z"/>
		<path style="fill:#EDB984;" d="M185.801,238.921c12.059,3.801,27.708-0.674,28.397-1.804c0.688-1.128,1.561-4.489-0.229-4.473
			c-1.806,0.016-10.747,2.058-12.836,1.295c-2.114-0.772-14.937-7.184-15.185-6.916
			C185.701,227.291,185.801,238.921,185.801,238.921z"/>
	</g>
	<path style="fill:#EDB984;" d="M181.811,238.315c0,0-62.474,4.657-70.746-0.098c-8.272-4.755-4.717-33.912,10.65-37.956
		c21.071-5.545,63.977,21.28,63.977,21.28L181.811,238.315z"/>
	<path style="fill:#E79B69;" d="M153.255,229.942c-20.176-4.435-36.134-13.675-40.849-22.714c-7.096,10.13-7.545,27.423-1.34,30.989
		c8.272,4.755,70.746,0.098,70.746,0.098S164.26,232.362,153.255,229.942z"/>
	<rect x="72.849" y="238.315" style="fill:#F2ECD1;" width="338.53" height="7.902"/>
	<rect x="172.661" y="238.315" style="fill:#E2D9B5;" width="238.717" height="7.902"/>
	<path style="fill:#D1C79F;" d="M277.437,405.5h-11.333c0,0-7.565-13.038-2.636-14.655c4.929-1.616,6.839,10.344,6.839,10.344
		L277.437,405.5z"/>
	<path style="fill:#D1C79F;" d="M208.955,405.5h-11.333c0,0-7.565-13.038-2.636-14.655c4.929-1.616,6.839,10.344,6.839,10.344
		L208.955,405.5z"/>
	<path style="fill:#C6388D;" d="M120.052,137.047c16.265-3.685,27.24-12.893,29.614-22.331c-8.789-3.975-18.148-6.591-24.416-5.741
		c-12.239,1.66-27.836,11.249-38.446,23.914c-0.673,0.708-1.34,1.469-2.001,2.268C93.085,137.1,108.722,139.613,120.052,137.047z"/>
	<path style="fill:#893044;" d="M153.564,47.572c-15.283-6.249-41.617,3.628-41.617,3.628s-9.957,22.172,3.064,45.121l30.89-5.009
		C157.983,73.574,153.564,47.572,153.564,47.572z"/>
	<path style="fill:#E5DDBA;" d="M122.738,127.239c11.737,0.219,21.548-5.648,24.144-13.723c-8.012-3.429-16.314-6.091-21.975-5.436
		c-6.727,0.778-14.736,5.176-22.606,10.807C106.782,123.783,114.26,127.081,122.738,127.239z"/>
	<path style="fill:#D27558;" d="M108.534,114.73l9.023-36.115l25.259,1.101l-0.66,32.173
		C140.326,125.194,114.438,124.258,108.534,114.73z"/>
	<path style="fill:#EDB984;" d="M123.523,59.44c-6.242,9.23-3.106,46.351,0.983,50.366c4.089,4.014,21.798,3.162,23.814,1.059
		c2.016-2.103,7.566-44.734,3.101-49.895C146.958,55.808,126.497,55.043,123.523,59.44z"/>
	<g>
		<path style="fill:#5A4949;" d="M139.944,78.082c0.042-1.824-0.953-3.269-2.227-3.233c-1.279,0.037-2.359,1.553-2.408,3.39
			c-0.049,1.842,0.957,3.299,2.243,3.248C138.833,81.438,139.902,79.911,139.944,78.082z"/>
		<path style="fill:#5A4949;" d="M154.661,78.206c-0.172-1.831-1.25-3.191-2.412-3.04c-1.167,0.151-1.98,1.766-1.813,3.611
			c0.168,1.849,1.257,3.219,2.428,3.054C154.03,81.667,154.833,80.042,154.661,78.206z"/>
		<path style="fill:#893044;" d="M141.807,65.839l-7.775,0.553c-0.973,0.069-1.655,1.074-1.519,2.244l0.27,2.325
			c0.136,1.173,1.04,2.057,2.014,1.974l7.778-0.663c0.938-0.08,1.584-1.072,1.447-2.217l-0.271-2.268
			C143.613,66.644,142.745,65.773,141.807,65.839z"/>
		<path style="fill:#893044;" d="M154.579,66.844l-5.949-0.738c-0.739-0.092-1.361,0.69-1.387,1.748l-0.054,2.104
			c-0.027,1.065,0.555,1.998,1.298,2.083l5.981,0.686c0.727,0.083,1.33-0.702,1.349-1.752l0.037-2.078
			C155.873,67.853,155.302,66.934,154.579,66.844z"/>
		<path style="fill:#D27558;" d="M146.307,96.769c-3.492,1.007-7.404-1.747-9.17-6.595l-1.762,0.563
			c1.641,5.249,5.768,8.268,9.412,7.217c0.98-0.283,1.825-0.863,2.541-1.627C147.001,96.502,146.667,96.665,146.307,96.769z"/>
		<path style="fill:#D27558;" d="M140.764,100.353c0.1-0.701-0.79-1.408-1.988-1.579c-1.198-0.171-2.25,0.259-2.35,0.96
			c-0.1,0.701,0.79,1.408,1.988,1.579C139.612,101.484,140.664,101.054,140.764,100.353z"/>
	</g>
	<path style="fill:#893044;" d="M118.98,89.925l8.586,0.117c0,0,4.272-36.49-2.233-38.095c-6.505-1.605-9.729,20.732-9.729,20.732
		L118.98,89.925z"/>
	<polygon style="fill:#F2ECD1;" points="146.097,74.248 131.172,74.248 130.834,85.954 145.759,85.954 	"/>
	<polygon style="fill:#F2ECD1;" points="158.768,74.248 148.207,74.248 147.968,85.954 158.529,85.954 	"/>
	<rect x="144.052" y="74.248" style="fill:#F2ECD1;" width="6.377" height="3.743"/>
	<polygon style="fill:#F2ECD1;" points="131.402,74.248 113.779,78.962 113.779,80.625 131.402,77.991 	"/>
	<polygon style="fill:#F2ECD1;" points="113.779,78.962 111.734,81.457 112.809,83.675 115.2,79.551 	"/>
	<path style="fill:#EDB984;" d="M121.499,94.019c-8.457-5.431-9.32-13.961-4.931-16.686c4.388-2.725,6.82,6.894,7.444,10.957
		C124.636,92.354,121.499,94.019,121.499,94.019z"/>
	<path style="fill:#D27558;" d="M120.361,90.819c-5.411-3.475-5.963-8.933-3.155-10.676c2.808-1.743,4.363,4.411,4.763,7.011
		C122.368,89.754,120.361,90.819,120.361,90.819z"/>
	<path style="fill:#EDB984;" d="M121.407,91.624c-2.765-1.774-3.043-4.559-1.605-5.447c1.438-0.888,2.229,2.251,2.431,3.578
		C122.436,91.081,121.407,91.624,121.407,91.624z"/>
	<path style="fill:#47373A;" d="M237.403,199.102l7.638-113.723c0.505-7.529,4.965-13.28,10.298-13.28h114.873
		c1.356,0,2.641,0.386,3.822,1.053c-1.803-2.2-4.146-3.549-6.733-3.549H252.428c-5.334,0-9.793,5.75-10.299,13.28l-7.638,113.723
		c-0.45,6.698,2.345,12.675,6.477,15.009C238.519,208.628,237.07,204.063,237.403,199.102z"/>
	<polygon style="fill:#EDB984;" points="144.52,76.12 133.079,76.12 132.82,84.948 144.261,84.948 	"/>
	<polygon style="fill:#EDB984;" points="157.69,76.12 149.759,76.12 149.58,84.948 157.51,84.948 	"/>
	<path style="fill:#5A4949;" d="M140.776,80.167c0.039-1.698-0.887-3.043-2.072-3.009c-1.19,0.034-2.195,1.445-2.24,3.155
		c-0.045,1.715,0.891,3.07,2.088,3.023C139.742,83.29,140.736,81.869,140.776,80.167z"/>
	<path style="fill:#5A4949;" d="M155.221,80.645c0.09-1.462-0.592-2.664-1.524-2.688c-0.937-0.025-1.775,1.147-1.87,2.619
		c-0.095,1.476,0.594,2.687,1.535,2.701C154.299,83.291,155.13,82.112,155.221,80.645z"/>
	<path style="fill:#D27558;" d="M147.021,80.059c0,0-0.297,0.43-0.699,1.114c1.833,3.695,3.886,9.915-2.147,8.427
		c0.034,0.158,0.028,0.325,0.077,0.479C154.507,94.121,148.602,82.402,147.021,80.059z"/>
</g>
</svg>
