<?xml version="1.0" encoding="utf-8"?>
<!-- Generator: Adobe Illustrator 27.5.0, SVG Export Plug-In . SVG Version: 6.00 Build 0)  -->
<svg version="1.1" id="Layer_1" xmlns="http://www.w3.org/2000/svg" xmlns:xlink="http://www.w3.org/1999/xlink" x="0px" y="0px"
	 viewBox="0 0 800 800" style="enable-background:new 0 0 800 800;" xml:space="preserve">
<g>
	<g>
		<defs>
			<rect id="SVGID_1_" x="62.883" y="143.802" width="775.338" height="584.721"/>
		</defs>
		<clipPath id="SVGID_00000026165659449276853650000001056924066849274032_">
			<use xlink:href="#SVGID_1_"  style="overflow:visible;"/>
		</clipPath>
		<g style="clip-path:url(#SVGID_00000026165659449276853650000001056924066849274032_);">
			<path style="fill:#001A45;" d="M40.05,747.485l-1.655-2.375l4.587-3.194l1.654,2.375L40.05,747.485z M49.224,741.096
				l-1.654-2.375l4.586-3.195l1.655,2.376L49.224,741.096z M58.397,734.707l-1.655-2.376l4.587-3.194l1.654,2.375L58.397,734.707z
				 M67.57,728.317l-1.654-2.375l4.587-3.195l1.654,2.375L67.57,728.317z M76.744,721.929l-1.654-2.375l4.586-3.195l1.655,2.375
				L76.744,721.929z M85.917,715.54l-1.654-2.375l4.586-3.194l1.654,2.375L85.917,715.54z M95.091,709.15l-1.655-2.375l4.587-3.195
				l1.655,2.375L95.091,709.15z M104.264,702.761l-1.654-2.375l4.586-3.195l1.655,2.375L104.264,702.761z M113.438,696.373
				l-1.654-2.375l4.587-3.195l1.654,2.375L113.438,696.373z M122.611,689.983l-1.655-2.375l4.587-3.195l1.654,2.376L122.611,689.983
				z M131.784,683.594l-1.654-2.375l4.586-3.194l1.655,2.375L131.784,683.594z M140.958,677.205l-1.654-2.376l4.586-3.194
				l1.655,2.375L140.958,677.205z M150.131,670.816l-1.654-2.375l4.587-3.195l1.654,2.375L150.131,670.816z M159.305,664.427
				l-1.654-2.375l4.586-3.194l1.655,2.375L159.305,664.427z M168.478,658.038l-1.655-2.375l4.587-3.195l1.654,2.375L168.478,658.038
				z M177.651,651.648l-1.654-2.375l4.587-3.194l1.654,2.375L177.651,651.648z M186.825,645.26l-1.655-2.375l4.586-3.195
				l1.655,2.375L186.825,645.26z M195.998,638.871l-1.654-2.376l4.587-3.194l1.654,2.376L195.998,638.871z M205.172,632.482
				l-1.654-2.375l4.587-3.195l1.654,2.375L205.172,632.482z M214.345,626.093l-1.655-2.375l4.587-3.195l1.654,2.375L214.345,626.093
				z M223.519,619.704l-1.654-2.375l4.586-3.194l1.655,2.375L223.519,619.704z M232.692,613.315l-1.654-2.375l4.586-3.194
				l1.655,2.375L232.692,613.315z M241.865,606.925l-1.654-2.375l4.587-3.195l1.654,2.375L241.865,606.925z M251.039,600.537
				l-1.654-2.375l4.586-3.194l1.654,2.375L251.039,600.537z M260.212,594.147l-1.655-2.375l4.587-3.195l1.654,2.376L260.212,594.147
				z M269.386,587.758l-1.654-2.375l4.587-3.194l1.654,2.375L269.386,587.758z M278.56,581.369l-1.655-2.375l4.587-3.194
				l1.654,2.375L278.56,581.369z M287.732,574.98l-1.654-2.375l4.587-3.194l1.654,2.375L287.732,574.98z M296.906,568.591
				l-1.654-2.375l4.586-3.194l1.654,2.375L296.906,568.591z M306.08,562.202l-1.655-2.375l4.587-3.195l1.654,2.375L306.08,562.202z
				 M315.253,555.813l-1.655-2.375l4.587-3.194l1.654,2.375L315.253,555.813z M324.427,549.424l-1.654-2.375l4.586-3.195
				l1.655,2.375L324.427,549.424z M434.977,545.311l-3.553-4.315l2.235-1.84l3.553,4.315L434.977,545.311z M441.382,543.628
				l-1.603-2.41l4.655-3.096l1.603,2.411L441.382,543.628z M333.6,543.035l-1.654-2.376l4.587-3.194l1.654,2.375L333.6,543.035z
				 M450.69,537.438l-1.603-2.41l4.654-3.096l1.603,2.411L450.69,537.438z M427.871,536.68l-3.553-4.315l2.235-1.839l3.553,4.315
				L427.871,536.68z M342.773,536.646l-1.655-2.375l4.587-3.195l1.654,2.375L342.773,536.646z M459.999,531.247l-1.602-2.41
				l4.654-3.096l1.603,2.411L459.999,531.247z M351.947,530.257l-1.655-2.375l4.587-3.194l1.654,2.375L351.947,530.257z
				 M420.766,528.049l-3.553-4.315l2.235-1.839L423,526.21L420.766,528.049z M469.308,525.056l-1.603-2.41l4.655-3.095l1.603,2.411
				L469.308,525.056z M361.12,523.867l-1.654-2.375l4.587-3.195l1.654,2.375L361.12,523.867z M413.661,519.419l-3.553-4.315
				l2.235-1.84l3.553,4.315L413.661,519.419z M478.616,518.866l-1.603-2.41l4.654-3.095l1.603,2.411L478.616,518.866z
				 M370.294,517.479l-1.654-2.375l4.586-3.194l1.655,2.375L370.294,517.479z M487.925,512.675l-1.603-2.41l4.654-3.095l1.604,2.411
				L487.925,512.675z M379.467,511.089l-1.654-2.375l4.587-3.194l1.654,2.375L379.467,511.089z M406.555,510.788l-3.553-4.315
				l2.235-1.839l3.552,4.316L406.555,510.788z M497.233,506.485l-1.603-2.41l4.655-3.095l1.603,2.41L497.233,506.485z
				 M388.641,504.7l-1.654-2.375l4.587-3.195l1.655,2.376L388.641,504.7z M608.797,504.584l-3.553-4.315l2.234-1.84l3.553,4.315
				L608.797,504.584z M615.295,502.258l-1.605-2.409l4.651-3.1l1.606,2.409L615.295,502.258z M399.45,502.158l-3.458-4.2
				l1.002-0.825l-0.835-1.198l1.219-0.849l4.306,5.232L399.45,502.158z M506.542,500.295l-1.602-2.41l4.653-3.095l1.603,2.41
				L506.542,500.295z M624.599,496.059l-1.605-2.409l4.651-3.1l1.606,2.408L624.599,496.059z M601.691,495.954l-3.553-4.315
				l2.235-1.84l3.553,4.315L601.691,495.954z M515.851,494.104l-1.603-2.411l4.654-3.095l1.603,2.41L515.851,494.104z
				 M633.901,489.86l-1.605-2.409l4.651-3.099l1.605,2.409L633.901,489.86z M525.159,487.913l-1.603-2.41l4.654-3.095l1.603,2.41
				L525.159,487.913z M594.586,487.323l-3.553-4.315l2.234-1.84l3.553,4.315L594.586,487.323z M643.205,483.661l-1.605-2.409
				l4.651-3.1l1.606,2.409L643.205,483.661z M534.468,481.723l-1.603-2.41l4.655-3.095l1.603,2.41L534.468,481.723z
				 M587.481,478.692l-3.552-4.315l2.234-1.84l3.553,4.315L587.481,478.692z M652.507,477.462l-1.604-2.409l4.651-3.099l1.605,2.409
				L652.507,477.462z M543.776,475.532l-1.604-2.41l4.655-3.096l1.603,2.41L543.776,475.532z M661.81,471.262l-1.605-2.409
				l4.652-3.1l1.605,2.409L661.81,471.262z M580.375,470.062l-3.553-4.315l2.235-1.84l3.553,4.315L580.375,470.062z
				 M553.084,469.342l-1.602-2.411l4.654-3.095l1.603,2.41L553.084,469.342z M671.113,465.064l-1.605-2.409l4.651-3.1l1.605,2.409
				L671.113,465.064z M562.393,463.151l-1.603-2.411l4.655-3.095l1.603,2.41L562.393,463.151z M573.27,461.431l-3.552-4.315
				l2.234-1.84l3.553,4.315L573.27,461.431z M680.416,458.864l-1.606-2.409l4.651-3.1l1.604,2.409L680.416,458.864z
				 M689.719,452.665l-1.605-2.408l4.651-3.1l1.606,2.409L689.719,452.665z M699.021,446.466l-1.605-2.409l4.652-3.099l1.605,2.409
				L699.021,446.466z M708.324,440.267l-1.605-2.409l4.651-3.1l1.605,2.409L708.324,440.267z M717.627,434.068l-1.605-2.409
				l4.65-3.1l1.605,2.409L717.627,434.068z M726.93,427.869l-1.604-2.409l4.65-3.1l1.606,2.409L726.93,427.869z M736.232,421.67
				l-1.604-2.409l4.651-3.099l1.605,2.409L736.232,421.67z M745.536,415.471l-1.605-2.409l4.651-3.1l1.605,2.409L745.536,415.471z
				 M754.839,409.272l-1.606-2.409l4.651-3.1l1.604,2.409L754.839,409.272z M764.142,403.072l-1.606-2.409l4.651-3.1l1.606,2.409
				L764.142,403.072z"/>
			<g>
				
					<rect x="-36.256" y="474.642" transform="matrix(0.8327 -0.5538 0.5538 0.8327 -269.5136 60.2798)" style="fill:#C60022;" width="2.481" height="2.894"/>
				<path style="fill:#C60022;" d="M-29.048,473.859l-1.603-2.41l4.133-2.749l1.603,2.41L-29.048,473.859z M-20.781,468.361
					l-1.603-2.41l4.133-2.748l1.603,2.41L-20.781,468.361z M-12.515,462.864l-1.603-2.41l4.133-2.749l1.604,2.41L-12.515,462.864z
					 M-4.249,457.367l-1.603-2.411l4.133-2.749l1.603,2.41L-4.249,457.367z M4.018,451.869l-1.603-2.41l4.133-2.749l1.603,2.41
					L4.018,451.869z M12.284,446.372l-1.603-2.41l4.133-2.749l1.602,2.41L12.284,446.372z M20.55,440.875l-1.603-2.41l4.133-2.749
					l1.603,2.41L20.55,440.875z M28.816,435.378l-1.604-2.411l4.134-2.749l1.602,2.41L28.816,435.378z M37.083,429.88l-1.603-2.41
					l4.133-2.749l1.604,2.41L37.083,429.88z M45.349,424.382l-1.602-2.41l4.133-2.749l1.603,2.41L45.349,424.382z M53.615,418.885
					l-1.603-2.41l4.133-2.749l1.603,2.411L53.615,418.885z M61.881,413.388l-1.603-2.411l4.133-2.749l1.603,2.411L61.881,413.388z
					 M70.147,407.89l-1.603-2.41l4.133-2.749l1.603,2.41L70.147,407.89z M78.414,402.393l-1.604-2.41l4.134-2.749l1.603,2.41
					L78.414,402.393z M86.68,396.896l-1.603-2.41l4.133-2.749l1.604,2.411L86.68,396.896z M94.946,391.399l-1.603-2.411l4.133-2.749
					l1.603,2.41L94.946,391.399z M103.213,385.901l-1.603-2.41l4.133-2.749l1.603,2.41L103.213,385.901z M111.479,380.403
					l-1.603-2.41l4.133-2.749l1.603,2.41L111.479,380.403z M119.745,374.906l-1.604-2.41l4.134-2.749l1.603,2.411L119.745,374.906z
					 M128.011,369.409l-1.603-2.411l4.133-2.749l1.603,2.41L128.011,369.409z M136.278,363.911l-1.603-2.41l4.133-2.749l1.604,2.41
					L136.278,363.911z M144.544,358.414l-1.604-2.41l4.134-2.749l1.603,2.41L144.544,358.414z"/>
				<polygon style="fill:#C60022;" points="154.534,353.172 153.788,352.266 152.81,352.917 151.207,350.506 154.361,348.409 
					156.769,351.333 				"/>
				<path style="fill:#C60022;" d="M187.599,393.335l-3.307-4.017l2.235-1.84l3.306,4.017L187.599,393.335z M180.986,385.302
					l-3.307-4.016l2.235-1.84l3.306,4.016L180.986,385.302z M174.373,377.27l-3.307-4.017l2.234-1.839l3.307,4.016L174.373,377.27z
					 M167.76,369.237l-3.306-4.016l2.235-1.84l3.306,4.016L167.76,369.237z M161.148,361.205l-3.307-4.016l2.234-1.84l3.307,4.016
					L161.148,361.205z"/>
				<polygon style="fill:#C60022;" points="193.313,400.275 190.905,397.351 193.14,395.511 193.887,396.418 194.864,395.767 
					196.467,398.178 				"/>
				<path style="fill:#C60022;" d="M200.656,395.392l-1.603-2.411l4.189-2.786l1.603,2.411L200.656,395.392z M209.034,389.82
					l-1.603-2.411l4.188-2.786l1.604,2.41L209.034,389.82z M217.412,384.249l-1.603-2.41l4.189-2.786l1.603,2.41L217.412,384.249z
					 M225.79,378.677l-1.603-2.41l4.189-2.786l1.602,2.41L225.79,378.677z M234.168,373.106l-1.604-2.41l4.189-2.786l1.603,2.41
					L234.168,373.106z M242.545,367.534l-1.603-2.41l4.189-2.786l1.603,2.41L242.545,367.534z M250.923,361.962l-1.603-2.41
					l4.189-2.786l1.604,2.41L250.923,361.962z M259.301,356.391l-1.603-2.41l4.189-2.786l1.603,2.41L259.301,356.391z
					 M267.679,350.819l-1.603-2.41l4.189-2.786l1.603,2.41L267.679,350.819z M276.057,345.248l-1.603-2.41l4.189-2.786l1.603,2.41
					L276.057,345.248z M284.435,339.676l-1.603-2.411l4.189-2.786l1.603,2.41L284.435,339.676z M292.813,334.105l-1.603-2.411
					l4.188-2.786l1.604,2.41L292.813,334.105z M301.19,328.533l-1.603-2.411l4.189-2.786l1.603,2.411L301.19,328.533z
					 M309.569,322.961l-1.603-2.41l4.189-2.786l1.603,2.411L309.569,322.961z M317.947,317.39l-1.603-2.41l4.189-2.787l1.603,2.411
					L317.947,317.39z"/>
				<polygon style="fill:#C60022;" points="328.048,312.074 327.302,311.168 326.324,311.818 324.722,309.408 327.875,307.31 
					330.283,310.234 				"/>
				<path style="fill:#C60022;" d="M361.113,352.236l-3.307-4.016l2.235-1.84l3.307,4.016L361.113,352.236z M354.5,344.204
					l-3.307-4.016l2.235-1.84l3.306,4.016L354.5,344.204z M347.887,336.171l-3.306-4.016l2.234-1.84l3.307,4.016L347.887,336.171z
					 M341.274,328.139l-3.307-4.016l2.235-1.84l3.306,4.016L341.274,328.139z M334.661,320.107l-3.306-4.017l2.234-1.84l3.306,4.016
					L334.661,320.107z"/>
				<polygon style="fill:#C60022;" points="366.83,359.18 364.42,356.253 366.654,354.413 367.398,355.316 368.371,354.666 
					369.981,357.071 				"/>
				<path style="fill:#C60022;" d="M374.169,354.269l-1.61-2.406l4.188-2.802l1.61,2.406L374.169,354.269z M382.547,348.664
					l-1.609-2.406l4.189-2.803l1.61,2.406L382.547,348.664z M390.925,343.059l-1.61-2.406l4.189-2.803l1.609,2.406L390.925,343.059z
					 M399.302,337.454l-1.609-2.406l4.188-2.803l1.61,2.406L399.302,337.454z M407.679,331.849l-1.609-2.406l4.189-2.803
					l1.609,2.406L407.679,331.849z M416.057,326.244l-1.609-2.406l4.189-2.802l1.609,2.405L416.057,326.244z M424.435,320.639
					l-1.609-2.406l4.189-2.802l1.609,2.406L424.435,320.639z M432.812,315.033l-1.61-2.406l4.189-2.802l1.61,2.405L432.812,315.033z
					 M441.19,309.428l-1.61-2.406l4.189-2.803l1.61,2.406L441.19,309.428z M449.566,303.823l-1.609-2.406l4.189-2.802l1.61,2.405
					L449.566,303.823z M457.944,298.218l-1.609-2.406l4.188-2.803l1.609,2.406L457.944,298.218z M466.322,292.613l-1.609-2.406
					l4.189-2.802l1.609,2.405L466.322,292.613z M474.699,287.008l-1.609-2.406l4.189-2.802l1.609,2.406L474.699,287.008z
					 M483.077,281.403l-1.61-2.406l4.19-2.802l1.609,2.406L483.077,281.403z M491.455,275.798l-1.61-2.406l4.189-2.802l1.61,2.406
					L491.455,275.798z M499.832,270.193l-1.609-2.406l4.188-2.802l1.61,2.406L499.832,270.193z M508.21,264.588l-1.61-2.406
					l4.189-2.803l1.61,2.406L508.21,264.588z M516.587,258.983l-1.61-2.406l4.189-2.802l1.61,2.405L516.587,258.983z
					 M524.965,253.378l-1.609-2.406l4.188-2.802l1.609,2.406L524.965,253.378z M533.342,247.773l-1.61-2.406l4.189-2.803
					l1.609,2.406L533.342,247.773z M541.72,242.168l-1.609-2.406l4.188-2.802l1.609,2.406L541.72,242.168z M550.097,236.563
					l-1.609-2.406l4.188-2.803l1.609,2.406L550.097,236.563z M558.475,230.958l-1.609-2.406l4.189-2.802l1.609,2.405
					L558.475,230.958z M566.852,225.353l-1.609-2.406l4.189-2.802l1.61,2.405L566.852,225.353z M575.229,219.748l-1.609-2.406
					l4.188-2.802l1.609,2.405L575.229,219.748z M583.607,214.143l-1.61-2.406l4.189-2.803l1.61,2.406L583.607,214.143z"/>
				
					<rect x="590.97" y="205.198" transform="matrix(0.8311 -0.5561 0.5561 0.8311 -14.8962 364.2413)" style="fill:#C60022;" width="2.481" height="2.894"/>
			</g>
			<polygon style="fill:#C60022;" points="591.625,206.586 584.779,195.99 597.379,195.359 609.977,194.729 604.224,205.955 
				598.471,217.181 			"/>
			<g>
				
					<rect x="-414.83" y="844.246" transform="matrix(0.8327 -0.5538 0.5538 0.8327 -537.549 -87.5201)" style="fill:#C60022;" width="2.481" height="2.894"/>
				<path style="fill:#C60022;" d="M-407.622,843.462l-1.603-2.41l4.133-2.749l1.603,2.411L-407.622,843.462z M-399.355,837.965
					l-1.603-2.41l4.133-2.749l1.603,2.41L-399.355,837.965z M-391.089,832.467l-1.603-2.411l4.134-2.749l1.603,2.411
					L-391.089,832.467z M-382.823,826.97l-1.603-2.411l4.133-2.749l1.603,2.41L-382.823,826.97z M-374.557,821.473l-1.603-2.41
					l4.133-2.749l1.604,2.411L-374.557,821.473z M-366.29,815.975l-1.603-2.41l4.133-2.749l1.603,2.41L-366.29,815.975z
					 M-358.024,810.478l-1.603-2.411l4.133-2.748l1.603,2.411L-358.024,810.478z M-349.758,804.981l-1.603-2.41l4.133-2.749
					l1.603,2.41L-349.758,804.981z M-341.491,799.483l-1.603-2.41l4.133-2.749l1.604,2.41L-341.491,799.483z M-333.226,793.985
					l-1.603-2.41l4.133-2.748l1.603,2.41L-333.226,793.985z M-324.959,788.488l-1.603-2.41l4.133-2.749l1.603,2.411
					L-324.959,788.488z M-316.693,782.991l-1.603-2.41l4.133-2.749l1.603,2.41L-316.693,782.991z M-308.427,777.494l-1.603-2.411
					l4.133-2.748l1.603,2.411L-308.427,777.494z M-300.16,771.997l-1.603-2.411l4.133-2.749l1.603,2.41L-300.16,771.997z
					 M-291.894,766.499l-1.604-2.411l4.133-2.748l1.604,2.41L-291.894,766.499z M-283.628,761.002l-1.603-2.41l4.133-2.748
					l1.603,2.41L-283.628,761.002z M-275.361,755.504l-1.603-2.41l4.133-2.749l1.603,2.411L-275.361,755.504z M-267.095,750.007
					l-1.603-2.41l4.133-2.749l1.603,2.41L-267.095,750.007z M-258.829,744.509l-1.603-2.411l4.133-2.749l1.603,2.41
					L-258.829,744.509z M-250.563,739.012l-1.603-2.41l4.133-2.749l1.602,2.411L-250.563,739.012z M-242.296,733.515l-1.604-2.411
					l4.133-2.748l1.604,2.411L-242.296,733.515z M-234.03,728.017l-1.603-2.41l4.133-2.749l1.602,2.41L-234.03,728.017z"/>
				<polygon style="fill:#C60022;" points="-224.04,722.776 -224.786,721.869 -225.764,722.52 -227.367,720.109 -224.212,718.012 
					-221.805,720.937 				"/>
				<path style="fill:#C60022;" d="M-190.976,762.939l-3.306-4.017l2.235-1.839l3.306,4.016L-190.976,762.939z M-197.588,754.906
					l-3.307-4.016l2.235-1.84l3.306,4.016L-197.588,754.906z M-204.201,746.873l-3.307-4.016l2.235-1.84l3.306,4.016
					L-204.201,746.873z M-210.814,738.841l-3.306-4.017l2.235-1.839l3.306,4.016L-210.814,738.841z M-217.427,730.809l-3.307-4.016
					l2.235-1.84l3.306,4.017L-217.427,730.809z"/>
				<polygon style="fill:#C60022;" points="-185.262,769.879 -187.669,766.955 -185.434,765.115 -184.688,766.021 -183.71,765.371 
					-182.107,767.781 				"/>
				<path style="fill:#C60022;" d="M-177.918,764.996l-1.603-2.411l4.189-2.786l1.602,2.411L-177.918,764.996z M-169.54,759.424
					l-1.603-2.41l4.189-2.786l1.603,2.411L-169.54,759.424z M-161.162,753.853l-1.604-2.411l4.189-2.786l1.603,2.41
					L-161.162,753.853z M-152.785,748.281l-1.603-2.411l4.189-2.786l1.602,2.411L-152.785,748.281z M-144.406,742.709l-1.604-2.41
					l4.189-2.786l1.602,2.411L-144.406,742.709z M-136.029,737.138l-1.603-2.411l4.189-2.786l1.603,2.411L-136.029,737.138z
					 M-127.651,731.566l-1.603-2.411l4.189-2.786l1.603,2.41L-127.651,731.566z M-119.273,725.994l-1.603-2.411l4.189-2.786
					l1.603,2.41L-119.273,725.994z M-110.896,720.422l-1.603-2.41l4.189-2.786l1.603,2.41L-110.896,720.422z M-102.517,714.851
					l-1.603-2.41l4.188-2.786l1.604,2.411L-102.517,714.851z M-94.139,709.279l-1.603-2.41l4.188-2.786l1.603,2.411L-94.139,709.279
					z M-85.762,703.708l-1.603-2.411l4.189-2.785l1.603,2.41L-85.762,703.708z M-77.383,698.136l-1.603-2.411l4.189-2.786
					l1.603,2.411L-77.383,698.136z M-69.006,692.565l-1.603-2.41l4.189-2.786l1.603,2.411L-69.006,692.565z M-60.627,686.993
					l-1.603-2.411l4.188-2.786l1.604,2.41L-60.627,686.993z"/>
				<polygon style="fill:#C60022;" points="-50.526,681.678 -51.272,680.771 -52.25,681.421 -53.853,679.011 -50.699,676.913 
					-48.291,679.838 				"/>
				<path style="fill:#C60022;" d="M-17.461,721.84l-3.307-4.017l2.235-1.84l3.307,4.017L-17.461,721.84z M-24.074,713.807
					l-3.307-4.016l2.235-1.84l3.307,4.016L-24.074,713.807z M-30.687,705.774l-3.306-4.016l2.234-1.84l3.307,4.017L-30.687,705.774z
					 M-37.3,697.742l-3.306-4.016l2.235-1.839l3.306,4.016L-37.3,697.742z M-43.913,689.71l-3.307-4.016l2.235-1.84l3.307,4.017
					L-43.913,689.71z"/>
				<polygon style="fill:#C60022;" points="-11.745,728.783 -14.154,725.856 -11.92,724.016 -11.176,724.919 -10.203,724.269 
					-8.593,726.675 				"/>
				<path style="fill:#C60022;" d="M-4.404,723.872l-1.61-2.406l4.189-2.802l1.61,2.406L-4.404,723.872z M3.973,718.267l-1.61-2.406
					l4.188-2.803l1.61,2.406L3.973,718.267z M12.351,712.662l-1.61-2.406l4.189-2.802l1.609,2.406L12.351,712.662z M20.728,707.057
					l-1.61-2.406l4.189-2.802l1.61,2.405L20.728,707.057z M29.105,701.452l-1.609-2.406l4.189-2.802l1.609,2.406L29.105,701.452z
					 M37.483,695.847l-1.609-2.406l4.188-2.802l1.609,2.406L37.483,695.847z M45.86,690.242l-1.609-2.406l4.188-2.803l1.609,2.406
					L45.86,690.242z M54.238,684.637l-1.609-2.406l4.189-2.802l1.609,2.406L54.238,684.637z M62.615,679.032l-1.61-2.406
					l4.189-2.803l1.61,2.406L62.615,679.032z M70.993,673.427l-1.61-2.406l4.189-2.802l1.61,2.406L70.993,673.427z M79.37,667.821
					l-1.609-2.406l4.189-2.802l1.61,2.406L79.37,667.821z M87.748,662.216l-1.61-2.406l4.189-2.802l1.609,2.406L87.748,662.216z
					 M96.126,656.611l-1.61-2.406l4.189-2.803l1.61,2.406L96.126,656.611z M104.503,651.006l-1.609-2.406l4.188-2.803l1.609,2.406
					L104.503,651.006z M112.88,645.401l-1.61-2.406l4.189-2.803l1.61,2.406L112.88,645.401z M121.258,639.796l-1.609-2.406
					l4.188-2.803l1.61,2.406L121.258,639.796z M129.636,634.191l-1.61-2.406l4.189-2.802l1.61,2.406L129.636,634.191z
					 M138.013,628.586l-1.61-2.405l4.188-2.803l1.61,2.406L138.013,628.586z M146.391,622.982l-1.61-2.406l4.189-2.803l1.609,2.406
					L146.391,622.982z M154.768,617.376l-1.61-2.406l4.189-2.802l1.61,2.406L154.768,617.376z M163.145,611.771l-1.609-2.406
					l4.188-2.803l1.609,2.406L163.145,611.771z M171.523,606.166l-1.609-2.406l4.189-2.802l1.609,2.406L171.523,606.166z
					 M179.9,600.561l-1.609-2.406l4.189-2.803l1.609,2.406L179.9,600.561z M188.278,594.956l-1.609-2.406l4.189-2.803l1.609,2.406
					L188.278,594.956z M196.655,589.351l-1.61-2.405l4.189-2.803l1.61,2.406L196.655,589.351z M205.033,583.746l-1.61-2.406
					l4.189-2.803l1.61,2.406L205.033,583.746z"/>
				
					<rect x="212.396" y="574.801" transform="matrix(0.831 -0.5562 0.5562 0.831 -284.4142 216.1818)" style="fill:#C60022;" width="2.481" height="2.894"/>
			</g>
			<polygon style="fill:#C60022;" points="213.051,576.189 206.205,565.593 218.805,564.963 231.403,564.332 225.65,575.558 
				219.898,586.785 			"/>
			<polygon style="fill:#001A45;" points="718.264,289.479 711.418,278.883 724.017,278.252 736.617,277.621 730.863,288.848 
				725.11,300.074 			"/>
			<polygon style="fill:#001A45;" points="769.873,398.494 763.028,387.899 775.627,387.268 788.226,386.637 782.473,397.863 
				776.719,409.089 			"/>
			<polygon style="fill:#001A45;" points="25.141,605.839 23.529,603.436 319.97,404.657 359.498,452.67 493.487,363.563 
				533.011,411.57 718.248,287.972 719.856,290.379 532.44,415.43 492.914,367.42 358.925,456.527 319.403,408.523 			"/>
		</g>
	</g>
	<g>
		<g>
			<path style="fill:#D1D3D4;" d="M546.063,296.78c0,0-53.248-45.706-152.458-22.056c0,0-88.838,20.994-96.686,126.225
				c0,0-1.682,34.811,35.312,94.071c0,0,13.451,40.126,10.089,108.155l112.995-47.518l90.747-161.826V296.78z"/>
			<g>
				<path style="fill:#122B42;" d="M412.97,519.84h-7.262c-0.528-2.561-1.227-5.035-2.111-7.439l6.072-3.501
					c1.45-0.843,1.95-2.701,1.118-4.169l-6.087-10.537c-0.852-1.451-2.716-1.951-4.159-1.112l-6.313,3.64
					c-1.693-1.929-3.543-3.731-5.523-5.379l3.512-6.081c0.837-1.467,0.338-3.319-1.118-4.165l-10.536-6.086
					c-1.448-0.831-3.31-0.335-4.154,1.12l-3.635,6.302c-2.42-0.825-4.927-1.454-7.489-1.896v-7.027c0-1.675-1.355-3.047-3.044-3.047
					h-12.159c-1.697,0-3.057,1.372-3.057,3.047v7.271c-2.549,0.514-5.026,1.218-7.433,2.101l-3.49-6.075
					c-0.851-1.464-2.711-1.955-4.18-1.12l-10.537,6.097c-1.451,0.833-1.945,2.697-1.108,4.152l3.643,6.31
					c-1.93,1.699-3.742,3.54-5.378,5.519l-6.079-3.509c-1.467-0.836-3.322-0.33-4.164,1.122l-6.095,10.538
					c-0.837,1.453-0.342,3.316,1.12,4.154l6.298,3.637c-0.818,2.423-1.45,4.916-1.888,7.477h-7.021c-1.69,0-3.05,1.377-3.05,3.053
					v12.165c0,1.683,1.36,3.039,3.05,3.039h7.268c0.509,2.562,1.208,5.053,2.093,7.443l-6.077,3.506
					c-1.455,0.843-1.94,2.706-1.113,4.156l6.082,10.533c0.837,1.456,2.706,1.96,4.164,1.125l6.311-3.645
					c1.703,1.935,3.548,3.752,5.521,5.388l-3.509,6.084c-0.842,1.455-0.347,3.319,1.107,4.153l10.552,6.091
					c1.456,0.832,3.315,0.335,4.146-1.115l3.647-6.303c2.418,0.816,4.912,1.45,7.48,1.883v7.037c0,1.684,1.36,3.036,3.034,3.036
					l12.183,0.009c1.678,0,3.043-1.362,3.043-3.045v-7.266c2.539-0.523,5.021-1.215,7.428-2.097l3.514,6.061
					c0.841,1.47,2.686,1.959,4.149,1.118l10.549-6.089c1.446-0.828,1.945-2.697,1.105-4.164l-3.645-6.303
					c1.936-1.693,3.742-3.54,5.393-5.522l6.084,3.515c1.462,0.842,3.307,0.34,4.158-1.115l6.082-10.544
					c0.839-1.454,0.338-3.319-1.108-4.15l-6.306-3.646c0.818-2.413,1.45-4.915,1.893-7.47h7.028c1.676,0,3.033-1.365,3.035-3.054
					v-12.171C416.012,521.193,414.643,519.84,412.97,519.84z M356.84,553.926c-13.412,0-24.284-10.879-24.284-24.282
					c0-13.416,10.872-24.286,24.284-24.286c13.409,0,24.279,10.87,24.279,24.286C381.119,543.047,370.249,553.926,356.84,553.926z"
					/>
				<path style="fill:#1C4563;" d="M356.835,491.198c-21.236,0-38.445,17.211-38.445,38.45c0,21.221,17.209,38.442,38.445,38.442
					c21.236,0,38.452-17.222,38.452-38.442C395.287,508.41,378.071,491.198,356.835,491.198z M356.84,561.215
					c-17.442,0-31.579-14.139-31.579-31.571c0-17.441,14.137-31.581,31.579-31.581c17.437,0,31.569,14.14,31.569,31.581
					C388.409,547.076,374.277,561.215,356.84,561.215z"/>
				<path style="fill:#1C4563;" d="M356.835,491.198c-0.362,0-0.706,0.007-1.056,0.021v6.879c0.35-0.019,0.694-0.036,1.061-0.036
					c17.437,0,31.569,14.14,31.569,31.581c0,17.433-14.132,31.571-31.569,31.571c-0.367,0-0.711-0.015-1.061-0.029v6.882
					c0.35,0.004,0.694,0.023,1.056,0.023c21.236,0,38.452-17.222,38.452-38.442C395.287,508.41,378.071,491.198,356.835,491.198z"/>
			</g>
			<g>
				<g>
					<path style="fill:#001A45;" d="M494.65,442.072l-0.612-18.2l-43.992-19.355l-7.176-27.263
						c0.191-0.096-29.394-14.58-29.196-14.671c-15.65,3.486-11.211-8.791-11.211-8.791l34.482,70.905L494.65,442.072z"/>
					<path style="fill:#00102E;" d="M491.975,422.964L434.8,408.789l4.357-7.815l-9.502-9.234l-6.308,4.993v15.778
						c0,0,5.601,7.995,8.431,8.821c2.83,0.827,35.007,11.579,35.253,11.717c0.246,0.138,19.672,6.63,19.672,6.63L491.975,422.964z"
						/>
					<path style="fill:#FFD59A;" d="M493.516,434.649c-0.695,1.907-0.393,4.756-1.371,6.862c2.56,1.363,9.295,2.786,14.271,4.589
						c5.685,2.064,9.574-7.865,8.911-13.65c-0.668-5.837-3.77,0.022-4.543-4.974c-0.648-4.188-11.148-2.652-14.275-1.905
						C496.047,428.685,494.795,431.786,493.516,434.649z"/>
					<polygon style="fill:#E6E6E6;" points="498.699,424.067 493.174,442.77 486.703,440.813 492.227,422.11 					"/>
				</g>
				<g>
					<path style="fill:#030202;" d="M461.983,570.777c0.443,1.14,0.836,1.775,1.162,1.802c3.963,0.326,3.235,7.877,4.574,8.623
						c6.575,3.664,31.886,15.467,34.119,9.444c2.231-6.022-21.347-19.674-21.347-19.674l-0.037-0.355
						C474.278,571.269,467.736,570.872,461.983,570.777z"/>
					<path style="fill:#001A45;" d="M378.735,465.023l0.238-0.679c20.321-21.983,8.296-15.278,18.119-19.087
						c-0.362,0.637,121.507,5.272,121.507,5.272l-36.892,117.492c-3.919,7.356-18.763,8.376-20.582,4.821
						c-1.508-10.8,20.513-89.973,20.513-89.973l-59.803,6.021L378.735,465.023z"/>
					<path style="fill:#00102E;" d="M378.735,465.023l0.238-0.679c20.321-21.983,18.444-14.712,28.267-18.522
						c-0.025,0.044,17.624,0.929,17.624,0.929l77.122,12.4c0,0-31.28,93.905-29.772,104.705c0.965,1.887,5.599,2.484,10.321,1.531
						l-0.828,2.635c-3.919,7.356-18.763,8.376-20.582,4.821c-1.508-10.8,20.513-89.973,20.513-89.973l-59.803,6.021L378.735,465.023
						z"/>
				</g>
				<path style="fill:#E3E3E3;" d="M409.656,354.649l-21.562-5.444c4.428,19.305-3.237,42.535-7.488,62.08
					c-2.523,11.039-5.749,21.455-9.082,32.276c-2.493,8.711,2.225,11.932,2.225,11.932l21.13,16.623
					c2.631-0.794,2.694-12.4,15.899-23.945c0,0-1.844-6.666,13.861-28.774c1.931-2.718,0.514-4.352,2.288-7.212
					C433.961,365.682,430.528,370.252,409.656,354.649z"/>
				<path style="fill:#FFC16B;" d="M413.04,335.751l-9.382-2.033c0,0-10.974,10.619-13.31,12.744
					C388.012,348.585,418.129,368,418.129,368s0.824-1.774,6.651-4.178c0,0-1.121-6.567-0.508-7.253
					C427.983,352.411,413.04,335.751,413.04,335.751z"/>
				<g>
					<path style="fill:#030202;" d="M440.082,584.672c0.444,1.139,0.837,1.774,1.163,1.801c3.963,0.326,3.236,7.877,4.573,8.623
						c6.576,3.664,31.887,15.467,34.119,9.443c2.232-6.022-21.346-19.674-21.346-19.674l-0.038-0.355
						C452.377,585.164,445.834,584.766,440.082,584.672z"/>
					<path style="fill:#001A45;" d="M399.935,502.786l59.803-6.021c0,0-22.021,79.173-20.513,89.973
						c1.819,3.555,16.663,2.535,20.582-4.821l36.893-117.492c0,0-121.871-4.636-121.509-5.273
						c-9.822,3.809,2.202-2.897-18.118,19.086l-0.238,0.679"/>
					<path style="fill:#00102E;" d="M468.412,482.905c-1.671,4.762-21.618,12.806-26.34,14.179
						c-1.719,0.678-3.853,0.055-5.935,0.179c-9.787,0.234-18.364,1.664-27.664,1.985c-5.386,0.363-40.884-8.003-34.831-37.704
						c1.037-5.087-9.935,16.98-16.577,16.607c1.492,2.619-1.899,20.127,18.228,25.824l24.642-1.19l60.428-5.83l-6.337,20.618
						C454.025,517.574,464.839,493.087,468.412,482.905z"/>
				</g>
				<path style="fill:#C9C9C9;" d="M390.037,351.325l17.57,27.726l3.334-7.141c0,0-4.964,48.501-4.711,48.341
					c0.254-0.162,9.185-44.37,9.185-44.37l1.527-2.189l3.871,3.245l5.998-11.044l-1.884-3.33l-9.406,5.477
					c0,0-7.472,0.044-7.794-0.083C407.405,367.831,390.037,351.325,390.037,351.325z"/>
				<path style="fill:#001A45;" d="M401.932,404.96c6.673-20.448,1.43-38.123-15.806-60.963l-26.957,9.795
					c0,0-3.304,69.834-8.296,80.577c-7.729,16.63-13.867,17.573-13.867,17.573c-2.69,14.184,8.853,37.676,18.273,39.766
					C358.673,486.326,388.522,446.058,401.932,404.96z"/>
				<path style="fill:#00245E;" d="M386.136,343.819l-3.328,2.636c8.568,17.206-0.807,24.674-0.807,24.674l12.17,9.227
					l-10.957,3.246c0,0,11.878,26.504,5.44,52.668c0,0,10.008-21.434,13.288-31.488
					C408.616,384.334,403.373,366.659,386.136,343.819z"/>
				<path style="fill:#00102E;" d="M401.932,404.96c-4.917,15.072-12.046,30.029-19.27,43.198l0,0l-23.493-94.367
					c0,0,27.012,24.371,45.288,39.601C404.056,397.184,403.218,401.02,401.932,404.96z"/>
				<path style="fill:#001A45;" d="M425.868,362.407l-3.718,3.487c1.23,28.159-7.496,67.364-21.201,93.985
					c26.934-23.247,41.921-82.626,41.921-82.626L425.868,362.407z"/>
				<path style="fill:#00102E;" d="M427.776,415.579c1.925-2.744,3.849-12.238,3.849-12.238s-0.696-2.575-2.392-7.091
					c4.43-0.476,3.443-3.053,7.72-4.404c-2.635-0.658-4.463-7.565-5.807-9.77c-4.737,0.275-3.586,4.613-8.455,4.898
					c-0.177,20.246,1.338,32.119-12.95,53.575C414.439,436.862,421.787,423.448,427.776,415.579z"/>
				<path style="fill:#00245E;" d="M413.237,435.698c9.196-12.746,11.941-22.389,22.955-33.346
					c-4.102-1.087-6.803-6.51-8.396-10.443c4.772-0.235,5.242-1.492,9.81-2.895c-7.565-5.788-11.953-17.556-11.023-26.432
					l-4.433,3.312c1.134,25.967-4.727,49.907-12.964,75.701C409.934,439.257,412.071,437.664,413.237,435.698z"/>
				<g>
					<path style="fill:#FFD59A;" d="M419.397,306.195c0,0,9.121-5.842,18.027-0.148c8.904,5.691,9.98,8.989,6.969,15.935
						c-3.011,6.944-6.536,11.22-2.758,13.409c3.779,2.188,6.758,1.875,6.758,1.875s-1.473,6.137-6.841,7.278
						c-3.235,0.688-7.113-0.036-7.113-0.036s-1.256,7.36,0.574,11.739c1.415,3.386-7.238,7.417-20.169-1.373
						c-9.628-6.547-10.647-13.389-9.893-15.367c1.104-2.891,1.618-3.443,2.742-5.445
						C408.817,332.061,419.397,306.195,419.397,306.195z"/>
					<path style="fill:#382100;" d="M419.308,309.794c0,0,0.254,15.76-4.167,18.838c-4.422,3.077-11.068,7.751-11.068,7.751
						s-3.227,2.663-4.443-13.106c-1.251-16.202-2.497-15.498,0.617-18.191c3.114-2.693,5.725-2.98,5.725-2.98
						s-1.188-6.586,2.576-8.989c3.762-2.404,17.961-2.219,29.455,2.337c11.494,4.553,20.012,12.197,17.237,18.238
						C452.955,318.662,437.773,323.764,419.308,309.794z"/>
					<path style="fill:#261700;" d="M454.669,307.49c-2.325,5.617-15.549-8.287-29.206-10.867
						c-5.804-1.097-11.353-0.292-14.84,2.908c-3.487,3.199,2.964,6.565,2.964,6.565s-4.837-2.141-6.801-2.33
						c-1.962-0.188-4.698,7.554-5.411,11.232c-0.619,3.193-2.891,14.542,3.593,20.754c1.961-1.377,6.738-4.729,10.171-7.12
						c4.421-3.078,4.167-18.838,4.167-18.838c18.466,13.97,33.647,8.868,35.931,3.897
						C456.136,311.738,455.853,309.619,454.669,307.49z"/>
					<path style="fill:#FFD59A;" d="M416.752,327.54c-1.128,4.343-5.561,6.949-9.902,5.821c-4.341-1.128-6.947-5.562-5.819-9.903
						c1.127-4.339,5.56-6.946,9.901-5.819C415.274,318.768,417.878,323.2,416.752,327.54z"/>
					<path style="fill:#FFC16B;" d="M408.697,332.011c0,0-2.58-1.635-0.166-3.791c1.219-1.089,3.29-0.04,3.29-0.04
						s-0.534-4.013-3.076-3.736c-2.54,0.277-3.012,2.582-3.012,2.582s-0.103-4.03,3.653-3.736c3.754,0.294,2.818,5.543,2.818,5.543
						s-3.424-1.57-3.83,1.306C408.196,331.391,408.697,332.011,408.697,332.011z"/>
					<path style="fill:#FFC16B;" d="M434.213,344.449c0,0-2.787-1.676-1.301-3.516c0.86-1.065,1.887-1.764,1.887-1.764
						S428.412,341.917,434.213,344.449z"/>
				</g>
				<path style="fill:#C60022;" d="M410.042,368.333l6.643,4.586c0,0-22.01,69.981,1.168,88.125
					c6.342,1.959,9.462,1.363,9.462,1.363l1.054-8.16c0,0-14.563-8.535-15.704-26.225c-1.592-24.689,6.435-55.215,6.435-55.215
					l5.413-3.881l-6.698-2.943L410.042,368.333z"/>
				<g>
					<polygon style="fill:#E3E3E3;" points="391.827,344.294 419.082,365.908 424.789,361.238 427.03,364.386 421.157,375.432 
						418.842,366.625 407.049,372.445 388.508,347.744 					"/>
					<g>
						<path style="fill:#FFFFFF;" d="M419.082,365.908l-19.105-11.752c0.11,4.623,0.944,5.213,0.696,9.716l6.376,8.573l11.793-5.82
							l2.315,8.807l4.926-8.978c0.206-0.551-1.228-3.803-1.228-3.803L419.082,365.908z"/>
					</g>
				</g>
			</g>
			<path style="fill:#122B42;" d="M342.756,603.311l200.621-308.811c7.363,4.725,21.135,16.567,28.063,24.02
				c22.265,23.95,41.741,51.646,39.566,100.844c-0.455,10.622-14.962,23.716-3.259,43.665c0,0,24.947,39.122,24.537,45.854
				c0,0,0.971,12.279-17.929,13.607c0,0-5.192,1.695-3.289,12.018l2.643,12.449c0,0,0.524,6.89-9.653,9.722
				c0,0-1.528,1.649,1.009,4.562c0,0,5.202,4.562-2.344,15.536c-2.708,3.94-6.867,9.031-3.555,18.818c0,0,4.513,18.923-2.741,23.856
				c0,0-7.997,10.587-42.609,8.125c-11.543-0.797-32.751-5.168-45.31,9.782c-0.411,0.753-6.699,12.561-2.703,23.549
				c1.732,4.766,2.259,9.765-3.598,11.315c-5.434,1.438-10.782-0.403-16.06-1.466c-9.909-1.995-19.611-4.696-29.156-7.888
				C372.137,631.031,342.756,603.311,342.756,603.311z"/>
			<path style="opacity:0.3;fill:#404041;" d="M543.377,294.499c0,0,82.83,75.414,19.072,178.813c0,0-26.994,42.86-86.432,63.292
				c-59.07,20.306-129.711,59.703-133.261,66.707L543.377,294.499z"/>
			<path style="fill:#F1F2F2;" d="M543.232,294.363c0,0,69.285,61.529,9.103,172.234c0,0-24.148,44.952-83.586,65.383
				c-59.07,20.305-122.601,64.192-126.149,71.195L543.232,294.363z"/>
		</g>
		<g>
			<path style="fill:#122B42;" d="M602.608,285.41h-7.964c-0.579-2.809-1.345-5.524-2.316-8.161l6.661-3.84
				c1.59-0.924,2.138-2.962,1.225-4.573l-6.676-11.559c-0.934-1.592-2.979-2.14-4.561-1.221l-6.924,3.993
				c-1.857-2.117-3.886-4.094-6.058-5.901l3.852-6.669c0.918-1.609,0.37-3.641-1.226-4.568l-11.559-6.677
				c-1.588-0.911-3.63-0.367-4.556,1.229l-3.988,6.912c-2.655-0.905-5.403-1.595-8.215-2.08v-7.709c0-1.837-1.487-3.342-3.338-3.342
				h-13.337c-1.862,0-3.354,1.504-3.354,3.342v7.975c-2.795,0.564-5.513,1.337-8.153,2.304l-3.828-6.663
				c-0.934-1.606-2.973-2.144-4.586-1.228l-11.558,6.687c-1.59,0.914-2.133,2.959-1.215,4.555l3.995,6.921
				c-2.118,1.864-4.105,3.883-5.899,6.053l-6.668-3.849c-1.609-0.917-3.644-0.362-4.567,1.231l-6.686,11.558
				c-0.918,1.594-0.376,3.639,1.228,4.558l6.908,3.989c-0.897,2.658-1.591,5.392-2.071,8.201h-7.701
				c-1.854,0-3.345,1.51-3.345,3.348v13.344c0,1.847,1.492,3.335,3.345,3.335h7.973c0.558,2.81,1.325,5.542,2.294,8.164
				l-6.666,3.847c-1.596,0.924-2.128,2.968-1.22,4.558l6.671,11.555c0.918,1.596,2.968,2.149,4.566,1.233l6.924-3.998
				c1.867,2.122,3.89,4.115,6.056,5.909l-3.85,6.674c-0.923,1.596-0.38,3.641,1.215,4.557l11.574,6.681
				c1.596,0.913,3.636,0.368,4.548-1.223l4.001-6.914c2.652,0.894,5.388,1.59,8.205,2.066v7.719c0,1.846,1.491,3.331,3.327,3.331
				l13.363,0.01c1.841,0,3.338-1.495,3.338-3.34v-7.97c2.785-0.574,5.508-1.332,8.147-2.3l3.854,6.647
				c0.923,1.612,2.947,2.149,4.551,1.226l11.572-6.679c1.585-0.908,2.133-2.957,1.212-4.566l-3.999-6.914
				c2.123-1.857,4.105-3.884,5.915-6.057l6.674,3.855c1.604,0.923,3.628,0.373,4.56-1.223l6.672-11.566
				c0.921-1.595,0.37-3.641-1.215-4.552l-6.917-3.999c0.898-2.647,1.591-5.392,2.076-8.194h7.709c1.839,0,3.328-1.497,3.331-3.35
				v-13.35C605.947,286.894,604.445,285.41,602.608,285.41z M541.04,322.797c-14.712,0-26.638-11.933-26.638-26.635
				c0-14.716,11.926-26.639,26.638-26.639c14.709,0,26.632,11.923,26.632,26.639C567.672,310.865,555.749,322.797,541.04,322.797z"
				/>
			<path style="fill:#1C4563;" d="M541.035,253.992c-23.295,0-42.171,18.879-42.171,42.176c0,23.277,18.876,42.168,42.171,42.168
				c23.294,0,42.178-18.891,42.178-42.168C583.213,272.871,564.329,253.992,541.035,253.992z M541.04,330.794
				c-19.132,0-34.64-15.509-34.64-34.631c0-19.131,15.508-34.641,34.64-34.641c19.127,0,34.629,15.51,34.629,34.641
				C575.669,315.284,560.167,330.794,541.04,330.794z"/>
			<path style="fill:#1C4563;" d="M541.035,253.992c-0.397,0-0.775,0.008-1.158,0.022v7.546c0.384-0.021,0.761-0.039,1.163-0.039
				c19.127,0,34.629,15.51,34.629,34.641c0,19.122-15.502,34.631-34.629,34.631c-0.402,0-0.779-0.017-1.163-0.033v7.549
				c0.384,0.005,0.761,0.025,1.158,0.025c23.294,0,42.178-18.891,42.178-42.168C583.213,272.871,564.329,253.992,541.035,253.992z"
				/>
		</g>
		<g>
			<path style="fill:#122B42;" d="M475.887,233.251h-4.952c-0.36-1.747-0.836-3.434-1.439-5.073l4.141-2.388
				c0.989-0.575,1.329-1.841,0.762-2.843l-4.15-7.186c-0.58-0.99-1.851-1.33-2.835-0.759l-4.305,2.482
				c-1.154-1.316-2.416-2.545-3.767-3.669l2.396-4.146c0.57-1,0.23-2.264-0.763-2.84l-7.186-4.15
				c-0.987-0.567-2.257-0.228-2.832,0.764l-2.479,4.297c-1.651-0.562-3.36-0.992-5.108-1.293v-4.793
				c0-1.142-0.924-2.078-2.075-2.078h-8.292c-1.158,0-2.085,0.935-2.085,2.078v4.958c-1.738,0.351-3.428,0.831-5.068,1.433
				l-2.38-4.143c-0.581-0.999-1.849-1.333-2.85-0.764l-7.185,4.157c-0.989,0.568-1.326,1.839-0.756,2.832l2.484,4.303
				c-1.317,1.159-2.553,2.414-3.668,3.763l-4.146-2.393c-1.001-0.57-2.265-0.225-2.84,0.765l-4.156,7.186
				c-0.571,0.991-0.234,2.262,0.763,2.833l4.296,2.48c-0.558,1.651-0.989,3.352-1.288,5.098h-4.788
				c-1.153,0-2.081,0.939-2.081,2.082v8.295c0,1.148,0.927,2.073,2.081,2.073h4.956c0.347,1.747,0.823,3.445,1.427,5.076
				l-4.145,2.391c-0.992,0.575-1.322,1.845-0.759,2.835l4.147,7.183c0.571,0.992,1.846,1.336,2.839,0.767l4.305-2.485
				c1.16,1.319,2.419,2.559,3.765,3.674l-2.394,4.149c-0.574,0.993-0.236,2.263,0.755,2.833l7.196,4.153
				c0.992,0.568,2.26,0.229,2.827-0.76l2.488-4.298c1.648,0.556,3.35,0.989,5.101,1.284v4.799c0,1.148,0.927,2.071,2.069,2.071
				l8.308,0.006c1.145,0,2.075-0.929,2.075-2.077v-4.955c1.731-0.357,3.424-0.829,5.065-1.43l2.396,4.133
				c0.574,1.001,1.832,1.336,2.829,0.761l7.194-4.152c0.986-0.564,1.327-1.838,0.754-2.839l-2.485-4.298
				c1.32-1.155,2.552-2.414,3.678-3.765l4.148,2.397c0.997,0.574,2.255,0.232,2.836-0.761l4.147-7.19
				c0.572-0.991,0.23-2.263-0.756-2.83l-4.3-2.486c0.558-1.646,0.989-3.352,1.29-5.095h4.793c1.143,0,2.069-0.931,2.07-2.083v-8.3
				C477.962,234.173,477.029,233.251,475.887,233.251z M437.61,256.495c-9.146,0-16.561-7.419-16.561-16.559
				c0-9.148,7.415-16.561,16.561-16.561c9.145,0,16.557,7.413,16.557,16.561C454.168,249.076,446.755,256.495,437.61,256.495z"/>
			<path style="fill:#1C4563;" d="M437.606,213.719c-14.481,0-26.216,11.737-26.216,26.22c0,14.471,11.735,26.215,26.216,26.215
				c14.482,0,26.223-11.744,26.223-26.215C463.829,225.456,452.089,213.719,437.606,213.719z M437.61,261.465
				c-11.895,0-21.534-9.642-21.534-21.53c0-11.894,9.64-21.536,21.534-21.536c11.891,0,21.528,9.642,21.528,21.536
				C459.139,251.823,449.501,261.465,437.61,261.465z"/>
			<path style="fill:#1C4563;" d="M437.606,213.719c-0.246,0-0.48,0.005-0.719,0.014v4.692c0.238-0.013,0.473-0.024,0.723-0.024
				c11.891,0,21.528,9.642,21.528,21.536c0,11.888-9.637,21.53-21.528,21.53c-0.25,0-0.484-0.01-0.723-0.02v4.693
				c0.238,0.002,0.473,0.016,0.719,0.016c14.482,0,26.223-11.744,26.223-26.215C463.829,225.456,452.089,213.719,437.606,213.719z"
				/>
		</g>
		<g>
			<path style="fill:#001A45;" d="M462.984,442.072l-0.613-18.2l-53.307-23.789l-22.939-56.086c0.191-0.095-8.458,4.67-8.26,4.579
				c-15.65,3.485-18.697,5.216-18.697,5.216l34.482,70.905L462.984,442.072z"/>
			<path style="fill:#FFD59A;" d="M461.849,434.649c-0.696,1.907-0.394,4.756-1.371,6.862c2.56,1.363,9.295,2.786,14.271,4.589
				c5.686,2.064,9.575-7.865,8.912-13.65c-0.669-5.837-3.77,0.022-4.543-4.974c-0.648-4.188-11.148-2.652-14.275-1.905
				C464.38,428.685,463.128,431.786,461.849,434.649z"/>
			<polygon style="fill:#E6E6E6;" points="467.031,424.067 461.506,442.77 455.036,440.813 460.56,422.11 			"/>
		</g>
		<polygon style="opacity:0.3;fill:#001A45;" points="209.452,436.619 177.547,404.714 145.642,436.619 161.203,436.619 
			161.204,478.475 193.929,478.475 193.929,436.619 		"/>
		<polygon style="fill:#001A45;" points="297.073,504.302 260.276,467.505 223.48,504.302 241.427,504.302 241.427,552.575 
			279.17,552.575 279.171,504.301 		"/>
		<polygon style="opacity:0.5;fill:#001A45;" points="280.836,394.726 260.276,374.166 239.717,394.726 249.745,394.726 
			249.745,421.698 270.832,421.698 270.833,394.726 		"/>
		<polygon style="opacity:0.3;fill:#001A45;" points="674.61,341.623 702.632,313.602 730.652,341.623 716.985,341.623 
			716.985,378.382 688.245,378.383 688.244,341.623 		"/>
		<polygon style="fill:#001A45;" points="615.088,397.267 647.405,364.95 679.723,397.268 663.959,397.268 663.959,439.664 
			630.813,439.664 630.812,397.267 		"/>
		<polygon style="fill:#C60022;" points="629.349,286.706 647.405,268.649 665.462,286.706 656.655,286.706 656.655,310.393 
			638.135,310.393 638.134,286.706 		"/>
	</g>
	<g>
		<path style="fill:#E6E4E6;" d="M160.287,259.075c20.816,0,41.633,0,62.449,0c20.934,0,41.868,0,62.801,0c0.104,0,0.21,0,0.315,0
			c8.608,0,15.793-5.206,15.793-11.443c0-6.238-7.185-11.444-15.793-11.444c-20.934,0-41.869,0-62.804,0c-20.817,0-41.633,0-62.45,0
			c-0.104,0-0.208,0-0.312,0c-8.609,0-15.793,5.207-15.793,11.444C144.494,253.869,151.678,259.075,160.287,259.075L160.287,259.075
			z"/>
	</g>
	<g>
		<path style="fill:#E6E4E6;" d="M308.071,211.022c13.62,0,27.24,0,40.859,0c6.238,0,11.443-5.206,11.443-11.444
			c0-6.238-5.205-11.443-11.443-11.443c-13.619,0-27.239,0-40.859,0c-6.238,0-11.443,5.206-11.443,11.443
			C296.627,205.816,301.833,211.022,308.071,211.022L308.071,211.022z"/>
	</g>
	<g>
		<path style="fill:#E6E4E6;" d="M668.801,242.689c13.62,0,27.239,0,40.859,0c6.238,0,11.443-5.206,11.443-11.444
			c0-6.238-5.206-11.443-11.443-11.443c-13.62,0-27.239,0-40.859,0c-6.237,0-11.443,5.206-11.443,11.443
			C657.358,237.483,662.563,242.689,668.801,242.689L668.801,242.689z"/>
	</g>
	<g>
		<path style="fill:#E6E4E6;" d="M717.215,579.534c13.619,0,27.239,0,40.858,0c6.238,0,11.443-5.205,11.443-11.443
			c0-6.238-5.205-11.443-11.443-11.443c-13.62,0-27.239,0-40.858,0c-6.238,0-11.443,5.205-11.443,11.443
			C705.771,574.329,710.977,579.534,717.215,579.534L717.215,579.534z"/>
	</g>
	<g>
		<path style="fill:#E6E4E6;" d="M281.216,672.747c13.62,0,27.24,0,40.858,0c6.239,0,11.444-5.206,11.444-11.444
			c0-6.238-5.205-11.444-11.444-11.444c-13.619,0-27.238,0-40.858,0c-6.237,0-11.443,5.206-11.443,11.444
			C269.772,667.541,274.978,672.747,281.216,672.747L281.216,672.747z"/>
	</g>
	<g>
		<path style="fill:#E6E4E6;" d="M197.723,314.973c13.62,0,27.239,0,40.859,0c6.238,0,11.443-5.206,11.443-11.444
			c0-6.238-5.205-11.443-11.443-11.443c-13.62,0-27.239,0-40.859,0c-6.238,0-11.443,5.205-11.443,11.443
			C186.279,309.767,191.485,314.973,197.723,314.973L197.723,314.973z"/>
	</g>
	<g>
		<path style="fill:#E6E4E6;" d="M643.737,618.4c15.084,0,30.168,0,45.251,0c15.169,0,30.338,0,45.507,0c0.077,0,0.152,0,0.228,0
			c6.238,0,11.444-5.206,11.444-11.444c0-6.237-5.206-11.443-11.444-11.443c-15.169,0-30.339,0-45.509,0
			c-15.084,0-30.167,0-45.252,0c-0.075,0-0.149,0-0.226,0c-6.239,0-11.443,5.206-11.443,11.443
			C632.294,613.194,637.498,618.4,643.737,618.4L643.737,618.4z"/>
	</g>
</g>
</svg>
